<?xml version="1.0" standalone="no"?>
<!DOCTYPE svg PUBLIC "-//W3C//DTD SVG 20010904//EN"
 "http://www.w3.org/TR/2001/REC-SVG-20010904/DTD/svg10.dtd">
<svg version="1.0" xmlns="http://www.w3.org/2000/svg"
 width="400.000000pt" height="400.000000pt" viewBox="0 0 400.000000 400.000000"
 preserveAspectRatio="xMidYMid meet">
<metadata>
Created by potrace 1.11, written by Peter Selinger 2001-2013
</metadata>
<g transform="translate(0.000000,400.000000) scale(0.100000,-0.100000)"
fill="#000000" stroke="none">
<path d="M1710 3914 c-295 -45 -584 -162 -843 -344 -120 -84 -353 -317 -437
-437 -185 -264 -300 -548 -344 -850 -21 -148 -21 -418 0 -566 44 -302 159
-586 344 -850 84 -120 317 -353 437 -437 264 -185 548 -300 850 -344 148 -21
418 -21 566 0 302 44 586 159 850 344 120 84 353 317 437 437 185 264 300 548
344 850 21 148 21 418 0 566 -44 302 -159 586 -344 850 -84 120 -317 353 -437
437 -264 185 -548 300 -850 344 -139 20 -438 20 -573 0z"/>
</g>
</svg>
