<?xml version="1.0" standalone="no"?>
<!DOCTYPE svg PUBLIC "-//W3C//DTD SVG 20010904//EN"
 "http://www.w3.org/TR/2001/REC-SVG-20010904/DTD/svg10.dtd">
<svg version="1.0" xmlns="http://www.w3.org/2000/svg"
 width="400.000000pt" height="400.000000pt" viewBox="0 0 400.000000 400.000000"
 preserveAspectRatio="xMidYMid meet">
<metadata>
Created by potrace 1.11, written by Peter Selinger 2001-2013
</metadata>
<g transform="translate(0.000000,400.000000) scale(0.100000,-0.100000)"
fill="#000000" stroke="none">
<path d="M3992 3660 c0 -14 2 -19 5 -12 2 6 2 18 0 25 -3 6 -5 1 -5 -13z"/>
<path d="M3993 3475 c0 -22 2 -30 4 -17 2 12 2 30 0 40 -3 9 -5 -1 -4 -23z"/>
<path d="M2230 3319 c-19 -10 -45 -19 -58 -19 -13 0 -38 -7 -55 -15 -46 -21
-119 -45 -138 -45 -19 0 -73 -65 -107 -127 -23 -43 -28 -58 -39 -123 -3 -19
-10 -40 -14 -46 -37 -47 -66 -210 -59 -329 l6 -90 4 106 c5 100 7 110 47 190
55 110 114 169 180 179 26 5 74 3 107 -2 39 -7 70 -7 95 0 20 5 90 20 156 33
122 23 187 26 193 9 2 -6 10 -10 18 -10 8 0 14 -5 14 -10 0 -6 23 -33 50 -60
28 -27 50 -58 50 -69 0 -11 4 -22 9 -25 12 -8 33 -122 30 -167 -2 -21 0 -41 4
-45 11 -11 8 -52 -4 -56 -8 -3 -8 -16 1 -48 7 -25 9 -64 6 -88 -7 -50 11 -132
28 -132 6 0 19 9 29 20 9 11 23 20 32 20 8 0 24 14 37 30 42 57 88 24 88 -64
0 -60 -74 -295 -98 -314 -9 -7 -33 -12 -52 -10 l-35 3 -7 -95 c-3 -52 -4 -98
-2 -102 3 -5 23 -8 45 -8 48 0 84 -30 75 -63 -3 -12 -6 -25 -6 -28 0 -12 -52
-29 -85 -29 -26 0 -35 -4 -35 -16 0 -21 40 -135 54 -152 15 -20 142 -82 168
-82 53 0 99 -21 121 -55 15 -23 41 -43 82 -61 33 -14 88 -44 122 -66 58 -37
65 -39 105 -31 79 16 261 16 300 0 39 -17 83 -67 93 -110 4 -15 11 -30 16 -33
5 -2 11 -27 15 -54 6 -49 25 -67 38 -35 8 22 40 18 82 -10 45 -31 64 -20 64
36 l0 39 -45 0 c-25 0 -45 -4 -45 -9 0 -5 -11 -11 -25 -13 -19 -4 -26 0 -34
23 -6 18 -6 31 0 34 16 11 10 58 -12 81 -20 22 -20 23 -4 52 15 24 26 31 63
35 24 3 58 1 73 -3 l29 -9 0 955 0 954 -23 0 c-14 0 -40 18 -67 46 -54 55
-109 83 -182 89 -29 2 -81 7 -114 11 -58 6 -63 4 -93 -23 -30 -26 -31 -30 -21
-58 6 -17 23 -75 37 -129 26 -105 25 -159 -4 -170 -9 -4 -145 -13 -301 -21
-157 -8 -287 -17 -290 -19 -12 -13 -44 20 -69 72 -15 31 -37 66 -48 77 -11 11
-29 31 -40 45 -11 14 -30 32 -41 40 -47 32 -171 118 -214 147 -25 17 -63 36
-85 44 -22 7 -44 16 -50 19 -12 8 -63 5 -100 -4 -17 -4 -24 -3 -20 4 9 15 -5
11 -45 -11z m1209 -961 c-2 -24 -7 -53 -12 -65 -11 -24 -40 -38 -57 -28 -25
15 0 105 34 122 35 17 38 15 35 -29z m-215 -369 c31 -25 34 -61 6 -89 -38 -38
-100 -20 -114 33 -5 22 -1 33 18 52 31 30 55 32 90 4z m186 -181 c24 -40 26
-71 5 -88 -33 -27 -125 43 -109 83 5 15 44 34 72 36 7 1 21 -14 32 -31z m-374
-121 c19 -19 64 -110 64 -128 0 -19 -27 -44 -57 -53 -82 -25 -169 153 -93 191
27 14 68 9 86 -10z"/>
<path d="M3010 3096 c0 -9 5 -16 10 -16 6 0 10 4 10 9 0 6 -4 13 -10 16 -5 3
-10 -1 -10 -9z"/>
<path d="M2930 3080 c0 -16 5 -21 23 -18 12 2 22 10 22 18 0 8 -10 16 -22 18
-18 3 -23 -2 -23 -18z"/>
<path d="M2865 3070 c3 -5 8 -10 11 -10 2 0 4 5 4 10 0 6 -5 10 -11 10 -5 0
-7 -4 -4 -10z"/>
<path d="M2275 2549 c-11 -4 -32 -8 -46 -8 -58 -2 -76 -54 -22 -67 21 -6 24
-11 19 -33 -7 -33 31 -116 59 -129 11 -5 31 -8 45 -6 14 1 30 3 36 3 18 1 25
41 9 47 -11 5 -11 11 -3 30 13 27 24 29 65 12 76 -31 69 -15 -9 22 -36 17 -54
30 -42 30 12 0 42 -11 68 -25 85 -45 85 -20 1 30 -27 15 -42 31 -39 39 3 7 -2
19 -10 26 -9 7 -13 16 -10 21 3 5 -5 10 -18 10 -13 1 -36 3 -53 4 -16 2 -39
-1 -50 -6z"/>
<path d="M1856 2541 c-4 -6 -4 -11 1 -11 4 0 0 -5 -10 -11 -9 -5 -21 -7 -27
-4 -12 8 -50 -17 -50 -33 0 -7 14 -36 30 -66 23 -40 38 -55 59 -59 20 -4 31
-14 35 -32 5 -21 12 -25 41 -25 19 0 45 5 58 11 34 15 62 83 62 149 0 51 -2
56 -30 69 -38 19 -160 27 -169 12z"/>
<path d="M2895 2377 c10 -16 13 -37 9 -68 -4 -32 -2 -40 5 -29 21 30 9 120
-15 120 -12 0 -12 -4 1 -23z"/>
<path d="M2795 2270 c-4 -12 3 -35 18 -60 25 -42 41 -44 30 -2 -3 14 -7 34 -8
46 -4 35 -4 36 -19 36 -8 0 -17 -9 -21 -20z"/>
<path d="M1938 2143 c-32 -34 -37 -45 -42 -103 -3 -36 -8 -84 -12 -108 -3 -23
-3 -59 1 -80 l7 -37 22 28 c12 15 27 27 34 27 7 0 12 5 12 11 0 7 10 9 25 5
18 -5 23 -3 19 8 -4 12 12 13 103 9 59 -3 112 -9 118 -14 5 -5 18 -9 28 -9 11
0 37 -10 58 -22 45 -25 60 -18 61 29 1 45 -27 80 -82 98 -27 9 -59 24 -72 33
-40 29 -67 42 -88 42 -13 0 -26 12 -37 35 -12 25 -20 32 -28 25 -7 -6 -26 -7
-44 -4 -27 6 -31 4 -31 -14 0 -13 10 -24 28 -30 15 -6 20 -11 11 -11 -9 -1
-24 -10 -33 -20 -18 -20 -56 -34 -56 -21 0 4 6 23 14 41 13 32 30 119 23 119
-2 0 -19 -17 -39 -37z m137 -73 c3 -5 2 -10 -4 -10 -5 0 -13 5 -16 10 -3 6 -2
10 4 10 5 0 13 -4 16 -10z"/>
<path d="M2260 2154 c0 -18 66 -134 78 -139 24 -9 4 65 -30 107 -27 35 -48 48
-48 32z"/>
<path d="M2147 2113 c-13 -12 -7 -21 24 -33 34 -14 54 -4 43 23 -6 17 -54 24
-67 10z"/>
<path d="M2025 1860 c5 -16 2 -20 -14 -20 -12 0 -21 -2 -21 -5 0 -16 29 -65
53 -89 29 -29 29 -30 8 -38 -12 -4 -21 -13 -21 -20 0 -9 -3 -9 -8 -2 -10 15
-40 25 -47 14 -3 -4 0 -11 5 -13 6 -3 5 -4 -2 -3 -7 1 -21 20 -32 42 -10 21
-23 42 -30 46 -17 11 -31 3 -28 -16 2 -9 -2 -16 -8 -16 -5 0 -10 -7 -10 -15 0
-18 -16 -20 -23 -2 -3 7 -6 6 -6 -5 -1 -9 7 -19 17 -22 10 -3 18 -16 19 -28 3
-36 121 -133 172 -141 26 -4 111 -81 111 -101 0 -8 -6 -16 -12 -19 -15 -5 31
-50 73 -72 24 -13 33 -12 72 1 l45 15 -5 62 c-3 34 -12 69 -19 78 -8 8 -14 19
-14 24 0 11 78 84 83 78 3 -2 7 2 10 10 4 10 -3 14 -24 14 -15 0 -30 -6 -33
-13 -4 -10 -12 -11 -28 -5 -15 6 -30 4 -45 -6 -20 -13 -23 -12 -33 7 -6 12
-21 31 -32 42 -20 20 -20 22 -3 35 16 11 16 13 3 13 -9 0 -18 -5 -20 -12 -5
-13 -53 18 -56 37 -1 6 -11 10 -21 10 -36 0 -33 14 3 21 21 3 45 17 56 31 26
33 25 37 -4 51 -14 6 -23 18 -23 29 2 15 -7 18 -56 21 -54 2 -58 1 -52 -18z"/>
<path d="M0 1603 l0 -103 63 0 c52 0 64 3 75 20 7 12 10 25 7 30 -3 5 -6 36
-6 69 -1 33 -6 65 -13 70 -6 5 -37 11 -69 13 l-57 3 0 -102z"/>
<path d="M2500 1679 c0 -5 5 -7 10 -4 6 3 10 8 10 11 0 2 -4 4 -10 4 -5 0 -10
-5 -10 -11z"/>
<path d="M2470 1664 c0 -8 5 -12 10 -9 6 4 8 11 5 16 -9 14 -15 11 -15 -7z"/>
<path d="M1905 1550 c14 -69 54 -149 120 -241 37 -52 73 -106 81 -121 18 -35
27 -36 14 -2 -15 39 -12 47 14 42 17 -4 23 -1 19 9 -7 18 12 17 27 -2 7 -8 28
-15 46 -15 33 0 45 12 24 25 -5 3 -10 1 -10 -4 0 -19 -22 -12 -27 9 -3 11 -13
20 -22 20 -17 0 -61 39 -61 53 0 4 -16 24 -35 43 -20 19 -33 39 -30 44 3 5 1
11 -4 14 -5 4 -13 1 -16 -5 -10 -15 -80 54 -117 116 -28 49 -29 49 -23 15z"/>
<path d="M2711 1495 c-26 -116 -69 -205 -161 -330 -21 -27 -52 -79 -70 -115
-18 -36 -40 -78 -48 -95 -9 -16 -18 -32 -21 -35 -36 -32 -61 -69 -55 -83 3
-10 10 -17 14 -17 5 0 33 35 63 78 31 42 80 97 110 122 75 63 84 77 117 188
16 53 38 123 50 155 15 43 20 77 18 125 l-3 67 -14 -60z"/>
<path d="M1761 1384 c0 -11 3 -14 6 -6 3 7 2 16 -1 19 -3 4 -6 -2 -5 -13z"/>
<path d="M1726 1343 c9 -38 14 -42 14 -10 0 14 -5 29 -10 32 -7 4 -8 -3 -4
-22z"/>
<path d="M848 1250 c-21 -51 -29 -55 -78 -36 -26 9 -70 15 -174 22 -56 4 -113
13 -128 21 -22 11 -32 11 -47 1 -22 -14 -41 -50 -41 -79 0 -11 -5 -29 -10 -40
-9 -16 -7 -19 13 -19 14 0 50 11 80 25 61 26 46 28 182 -15 17 -6 51 -13 76
-16 40 -5 49 -3 73 19 22 21 34 24 66 20 24 -4 55 1 80 11 48 19 87 21 93 4 3
-9 13 -5 31 12 l28 25 -29 12 c-15 7 -38 12 -50 13 -12 0 -38 16 -57 35 -22
22 -45 35 -61 35 -22 0 -30 -8 -47 -50z"/>
<path d="M1740 1223 c0 -67 33 -307 38 -280 2 9 8 17 13 17 5 0 9 15 9 33 0
38 -26 232 -36 265 -12 41 -24 23 -24 -35z"/>
<path d="M0 1204 c0 -24 1 -44 3 -44 2 0 22 9 45 20 51 25 96 20 159 -16 50
-29 73 -30 73 -5 0 26 -18 38 -65 44 -68 10 -109 19 -130 30 -11 6 -34 11 -52
13 -33 2 -33 2 -33 -42z"/>
<path d="M2025 1052 c-12 -9 -40 -43 -64 -74 -23 -31 -53 -64 -67 -73 -13 -8
-24 -22 -24 -29 0 -15 53 -39 110 -51 46 -9 90 -28 90 -38 0 -5 5 -5 10 -2 6
3 10 11 10 16 0 6 -4 7 -10 4 -15 -9 -12 5 5 22 17 16 35 15 122 -9 74 -21
107 -44 98 -71 -15 -51 -24 -105 -23 -147 1 -31 2 -36 5 -15 7 59 35 160 50
183 13 21 13 25 -4 37 -10 8 -31 19 -48 26 -16 7 -41 22 -55 35 -14 13 -42 38
-63 56 -20 18 -50 58 -65 88 -30 60 -46 69 -77 42z"/>
<path d="M2688 995 c-16 -35 -28 -68 -28 -72 0 -13 49 -32 56 -22 3 5 9 7 14
4 12 -8 20 22 20 79 0 45 -12 76 -29 76 -4 0 -18 -29 -33 -65z"/>
<path d="M3764 870 c-16 -22 -32 -40 -36 -40 -16 0 -7 -28 43 -126 41 -79 53
-115 57 -160 2 -33 10 -63 16 -69 24 -19 36 -54 36 -103 0 -68 18 -160 40
-202 10 -19 21 -53 25 -75 10 -58 25 -95 41 -95 12 0 14 53 14 305 l0 306 -47
-7 c-40 -5 -53 -2 -75 16 -37 28 -52 84 -33 120 19 36 42 44 71 25 28 -18 56
-19 72 -3 18 18 15 40 -12 73 l-23 29 -32 -32 c-50 -50 -97 -36 -108 32 -3 20
-9 38 -13 41 -4 2 -20 -14 -36 -35z"/>
<path d="M13 823 c-10 -4 -13 -52 -13 -194 l0 -189 29 0 c16 0 42 -3 59 -6 24
-5 36 0 62 25 18 17 50 36 70 41 21 6 40 16 43 23 4 10 3 79 -3 258 0 9 -12
21 -27 28 -27 13 -196 23 -220 14z"/>
<path d="M566 814 c-9 -8 -16 -30 -17 -47 -2 -132 -10 -223 -22 -292 -9 -44
-18 -169 -22 -278 l-7 -197 99 0 99 0 10 59 c7 43 6 66 -3 87 -20 48 -15 99
23 201 20 54 49 145 64 203 16 58 34 119 40 135 7 17 15 56 19 88 l7 57 -137
0 c-112 0 -141 -3 -153 -16z"/>
<path d="M1610 810 c0 -5 5 -10 10 -10 6 0 10 5 10 10 0 6 -4 10 -10 10 -5 0
-10 -4 -10 -10z"/>
<path d="M1636 768 c-4 -19 -1 -37 6 -46 10 -13 10 -14 1 -8 -17 9 -16 3 2
-41 8 -19 15 -44 15 -55 0 -12 4 -16 11 -12 8 5 10 -1 5 -19 -4 -16 1 -43 14
-72 23 -53 24 -59 10 -50 -6 3 -10 -5 -10 -19 0 -14 5 -28 10 -31 6 -4 7 -12
4 -18 -5 -8 -4 -9 4 -2 5 6 12 19 14 30 2 11 8 -6 12 -37 4 -31 13 -61 20 -67
11 -9 12 -3 5 31 -4 24 -13 81 -20 128 -13 100 -30 167 -60 250 -26 72 -35 80
-43 38z"/>
<path d="M3226 735 c8 -37 14 -45 14 -19 0 10 -5 26 -10 34 -8 11 -9 7 -4 -15z"/>
<path d="M1400 646 c11 -32 22 -89 25 -126 2 -37 8 -77 13 -90 10 -26 4 -80
-9 -80 -13 0 -11 -88 3 -127 9 -25 9 -44 1 -76 -11 -42 -6 -147 7 -147 10 0
31 550 22 590 -7 30 -9 32 -16 15 -6 -17 -11 -12 -30 32 -31 73 -40 78 -16 9z
m50 -76 c0 -5 -5 -10 -11 -10 -5 0 -7 5 -4 10 3 6 8 10 11 10 2 0 4 -4 4 -10z
m-3 -42 c-3 -8 -6 -5 -6 6 -1 11 2 17 5 13 3 -3 4 -12 1 -19z"/>
<path d="M2278 435 c-5 -55 -7 -127 -7 -160 1 -59 1 -60 10 -20 5 21 8 93 7
160 l-3 120 -7 -100z"/>
<path d="M1697 344 c-4 -4 -7 -16 -7 -27 0 -10 -6 -33 -13 -50 -19 -44 -35
-90 -59 -167 -11 -36 -24 -73 -29 -83 -9 -16 -6 -18 28 -15 32 3 41 9 59 41
11 20 23 34 27 31 3 -4 2 8 -3 25 -8 29 -7 31 6 20 13 -11 14 -9 9 14 -4 15
-3 27 2 27 12 0 33 68 33 106 -1 28 -1 28 -16 9 -15 -19 -16 -18 -11 23 3 23
1 40 -3 37 -5 -3 -10 0 -12 6 -2 5 -7 7 -11 3z"/>
<path d="M2266 129 c-9 -88 -8 -129 4 -129 6 0 10 38 10 95 0 52 -2 95 -4 95
-2 0 -6 -28 -10 -61z"/>
<path d="M3391 14 c0 -11 3 -14 6 -6 3 7 2 16 -1 19 -3 4 -6 -2 -5 -13z"/>
</g>
</svg>
