<svg viewBox="379 72.1 16 16" xmlns="http://www.w3.org/2000/svg"><path d="m386.8 79.1c-.1.2-.1.4-.2.7-.2.7-.3.9-.4 1.1s-.1.2-.2.5c0 .1-.1.2-.2.4.5-.2.8-.3 1.3-.5l.3-.1c.2-.1.4-.1.5-.2.1 0 .1 0 .2-.1-.1-.1-.2-.3-.4-.5-.3-.3-.6-.7-.9-1.3zm-3.6 5.2c-.1.4-.1.4-.1.4.1 0 .2.1.2 0 .1-.1.2-.2.4-.6.1-.1.1-.2.2-.4 0 0 0-.1.1-.1-.4.3-.7.5-.8.7zm3.3-7.6c.1-.6.1-.7 0-1.2 0-.1 0-.1 0-.1s0 .1-.1.1c-.1.3-.1.6 0 1 .1.1.1.1.1.2z"/><path d="m391.3 72.1h-8.6c-1.1 0-2 .9-2 2.1v11.8c0 1.1.9 2.1 2 2.1h6.6l4.1-4.1v-9.8c0-1.2-1-2.1-2.1-2.1zm-2.1 10c-.2-.2-.3-.3-.5-.4-.2 0-.3.1-.5.2-.1.1-.3.1-.6.2l-.3.1c-.6.2-.9.3-1.6.6-.2.1-.3.1-.5.2v.1c0 .1-.2.5-.6 1.1-.1.1-.1.3-.2.4-.2.4-.3.6-.6.8-.2.2-.4.2-.7.2-.2 0-.5-.1-.7-.2-.5-.4-.3-1.1-.2-1.4.2-.5.7-.8 1.4-1.2.3-.2.6-.3.8-.5.2-.3.4-.8.6-1.2.1-.3.1-.3.2-.5 0-.1.1-.4.4-1.1.2-.7.3-1.1.5-1.5-.3-.6-.5-1-.6-1.4-.1-.5-.1-.9 0-1.4.2-.7.7-.8.8-.8.2 0 .7.1.9.8.1.6.1.9-.1 1.7l-.1.3c0 .2-.1.5-.1.6.1.1.1.2.2.3.4.8.7 1.2 1.1 1.8.2.3.4.5.6.7h.2c.3-.1.5-.1.7-.1s.5 0 .8.1c.8.1 1 .7 1 1 0 .2 0 .8-.8.9-.2.1-.6.1-.8 0 0 .1-.3 0-.7-.4zm.5 5v-2.1c0-.3.3-.6.6-.6h2.1z"/><path d="m390.8 81.9h.1v-.1s-.1-.1-.3-.1c-.3-.1-.5-.1-.7-.1-.1 0-.1 0-.2 0 .3.3.5.4.6.4.1-.1.3-.1.5-.1z"/></svg>