<svg viewBox="379 72 16 16" xmlns="http://www.w3.org/2000/svg"><path d="m380.8 86.7h12.3v-8.8h-12.3zm8.7-7.9h1.7v1.4h-1.7zm0 2.5h1.7v1.4h-1.7zm0 2.5h1.7v1.4h-1.7zm-3.4-5h1.7v1.4h-1.7zm0 2.5h1.7v1.4h-1.7zm0 2.5h1.7v1.4h-1.7zm-3.3-5h1.7v1.4h-1.7zm0 2.5h1.7v1.4h-1.7zm0 2.5h1.7v1.4h-1.7z" fill="none"/><path d="m384.7 75.1h-1.3v-.8h-2.6v2.3h12.4v-2.3h-2.6v.8h-1.3v-.8h-4.6z" fill="none"/><path d="m382.8 78.8h1.7v1.4h-1.7z"/><path d="m386.1 78.8h1.7v1.4h-1.7z"/><path d="m389.5 78.8h1.7v1.4h-1.7z"/><path d="m382.8 81.3h1.7v1.4h-1.7z"/><path d="m386.1 81.3h1.7v1.4h-1.7z"/><path d="m389.5 81.3h1.7v1.4h-1.7z"/><path d="m382.8 83.8h1.7v1.4h-1.7z"/><path d="m386.1 83.8h1.7v1.4h-1.7z"/><path d="m389.5 83.8h1.7v1.4h-1.7z"/><path d="m383.4 72v1.1h-3.8v14.9h14.9v-14.9h-3.8v-1.1h-1.3v1.1h-4.7v-1.1zm9.8 14.7h-12.3v-8.8h12.3zm-3.9-12.4v.8h1.3v-.8h2.5v2.3h-12.3v-2.3h2.5v.8h1.3v-.8z"/></svg>